<svg width="1453" height="1497" viewBox="0 0 1453 1497" fill="none" xmlns="http://www.w3.org/2000/svg">
<g filter="url(#filter0_d_9_70)">
<path d="M726.5 18L1355.67 381.25V1107.75L726.5 1471L97.3325 1107.75V381.25L726.5 18Z" fill="#F8F3EF" shape-rendering="crispEdges"/>
<path d="M730.25 11.5048L726.5 9.33975L722.75 11.5048L93.5825 374.755L89.8325 376.92V381.25V1107.75V1112.08L93.5825 1114.25L722.75 1477.5L726.5 1479.66L730.25 1477.5L1359.42 1114.25L1363.17 1112.08V1107.75V381.25V376.92L1359.42 374.755L730.25 11.5048Z" stroke="url(#paint0_linear_9_70)" stroke-width="15" shape-rendering="crispEdges"/>
</g>
<g filter="url(#filter1_d_9_70)">
<path d="M726.5 18L1355.67 381.25V1107.75L726.5 1471L97.3325 1107.75V381.25L726.5 18Z" fill="#F8F3EF"/>
</g>
<g filter="url(#filter2_d_9_70)">
<path opacity="0.4" d="M201.643 863.987L202.891 788.397L189.331 788.397L189.539 775.799L217.979 775.799L216.731 851.389L230.291 851.389L230.083 863.987L201.643 863.987ZM261.027 864.947C259.507 864.947 257.99 864.787 256.475 864.467C254.96 864.147 253.53 863.587 252.183 862.787C250.917 861.907 249.815 860.827 248.876 859.547C248.018 858.268 247.28 856.908 246.664 855.468C246.128 854.028 245.752 852.548 245.537 851.029C245.402 849.509 245.347 847.989 245.372 846.469C245.408 844.31 245.684 842.15 246.199 839.99C246.715 837.83 247.587 835.911 248.814 834.231C250.123 832.471 251.668 830.991 253.448 829.792C255.309 828.512 257.245 827.512 259.257 826.792C261.349 826.072 263.437 825.592 265.521 825.352C267.686 825.032 269.849 824.872 272.009 824.872L277.889 824.872L277.954 820.913C277.973 819.793 277.831 818.673 277.53 817.553C277.31 816.353 276.806 815.354 276.019 814.554C275.234 813.674 274.284 813.034 273.171 812.634C272.058 812.234 270.901 812.034 269.701 812.034C268.661 812.034 267.618 812.194 266.573 812.514C265.609 812.754 264.721 813.234 263.909 813.954C263.099 814.594 262.485 815.394 262.07 816.353C261.654 817.313 261.437 818.313 261.42 819.353L246.54 819.353C246.57 817.513 246.841 815.673 247.351 813.834C247.943 811.914 248.772 810.154 249.838 808.554C250.905 806.955 252.168 805.555 253.628 804.355C255.169 803.075 256.825 802.075 258.597 801.355C260.449 800.636 262.297 800.156 264.141 799.916C266.066 799.596 267.989 799.436 269.909 799.436C271.909 799.436 273.906 799.596 275.901 799.916C277.896 800.236 279.806 800.796 281.633 801.595C283.46 802.395 285.122 803.475 286.62 804.835C288.199 806.115 289.454 807.635 290.384 809.394C291.317 811.074 291.966 812.914 292.333 814.914C292.7 816.913 292.867 818.913 292.834 820.913L292.123 863.987L277.243 863.987L277.392 854.988C276.647 856.508 275.703 857.948 274.56 859.308C273.499 860.587 272.241 861.667 270.787 862.547C269.334 863.347 267.764 863.947 266.077 864.347C264.391 864.747 262.707 864.947 261.027 864.947ZM267.355 852.348C268.715 852.348 270.039 852.149 271.325 851.749C272.692 851.349 273.863 850.669 274.839 849.709C275.815 848.749 276.513 847.629 276.934 846.349C277.355 845.069 277.577 843.75 277.6 842.39L277.681 837.471L271.801 837.471C270.921 837.471 270.04 837.511 269.159 837.59C268.358 837.67 267.515 837.83 266.631 838.07C265.828 838.23 265.024 838.51 264.217 838.91C263.412 839.23 262.684 839.71 262.033 840.35C261.464 840.91 261.012 841.63 260.678 842.51C260.345 843.31 260.171 844.15 260.156 845.029C260.14 845.989 260.284 846.949 260.589 847.909C260.893 848.869 261.359 849.709 261.987 850.429C262.695 851.149 263.527 851.669 264.481 851.989C265.437 852.228 266.395 852.348 267.355 852.348ZM305.997 888.584L306.205 875.985L313.165 875.985C313.965 875.985 314.726 875.905 315.449 875.745C316.172 875.585 316.818 875.225 317.387 874.665C317.955 874.185 318.365 873.586 318.617 872.866C318.868 872.146 319.081 871.386 319.254 870.586C319.681 868.986 320.108 867.346 320.535 865.667C320.963 863.987 321.351 862.307 321.699 860.627L308.413 800.396L323.653 800.396L329.873 837.95L336.613 800.396L351.853 800.396L333.727 873.466C333.296 875.305 332.707 877.105 331.957 878.865C331.288 880.625 330.343 882.184 329.12 883.544C328.063 884.584 326.889 885.464 325.597 886.184C324.385 886.904 323.056 887.424 321.611 887.744C320.244 888.144 318.8 888.384 317.279 888.464C315.838 888.544 314.397 888.584 312.957 888.584L305.997 888.584ZM389.307 864.947C387.147 864.947 384.951 864.747 382.717 864.347C380.564 863.947 378.496 863.227 376.513 862.187C374.61 861.147 372.912 859.827 371.418 858.228C369.925 856.628 368.714 854.828 367.787 852.828C366.86 850.829 366.215 848.749 365.85 846.589C365.566 844.43 365.442 842.23 365.479 839.99L365.737 824.392C365.773 822.233 365.968 820.073 366.324 817.913C366.761 815.673 367.435 813.594 368.347 811.674C369.34 809.674 370.61 807.875 372.156 806.275C373.704 804.595 375.446 803.235 377.383 802.195C379.321 801.155 381.372 800.436 383.539 800.036C385.786 799.636 387.989 799.436 390.149 799.436C392.309 799.436 394.466 799.636 396.619 800.036C398.852 800.436 400.921 801.155 402.823 802.195C404.726 803.235 406.424 804.595 407.916 806.275C409.41 807.875 410.58 809.674 411.427 811.674C412.355 813.594 412.961 815.673 413.244 817.913C413.608 820.073 413.773 822.233 413.737 824.392L413.505 838.43L380.385 838.43L380.359 839.99C380.336 841.43 380.431 842.91 380.646 844.43C380.862 845.869 381.36 847.229 382.139 848.509C382.919 849.709 383.983 850.669 385.331 851.389C386.681 852.029 388.075 852.348 389.515 852.348C390.555 852.348 391.597 852.228 392.641 851.989C393.685 851.749 394.612 851.349 395.421 850.789C396.312 850.149 397.005 849.349 397.501 848.389C397.996 847.429 398.253 846.429 398.27 845.389L413.15 845.389C413.038 847.309 412.647 849.189 411.977 851.029C411.387 852.868 410.518 854.588 409.372 856.188C408.307 857.708 407.004 859.068 405.465 860.267C403.926 861.387 402.271 862.307 400.499 863.027C398.727 863.747 396.879 864.227 394.955 864.467C393.11 864.787 391.227 864.947 389.307 864.947ZM398.831 825.952L398.857 824.392C398.881 822.952 398.784 821.513 398.568 820.073C398.352 818.633 397.854 817.313 397.074 816.113C396.375 814.834 395.351 813.834 394.003 813.114C392.735 812.394 391.381 812.034 389.941 812.034C388.501 812.034 387.095 812.394 385.723 813.114C384.431 813.834 383.375 814.834 382.554 816.113C381.814 817.313 381.312 818.633 381.048 820.073C380.784 821.513 380.641 822.952 380.617 824.392L380.591 825.952L398.831 825.952ZM432.283 863.987L433.333 800.396L448.213 800.396L447.991 813.834C448.5 812.074 449.129 810.354 449.876 808.674C450.704 806.995 451.69 805.435 452.834 803.995C454.057 802.555 455.516 801.435 457.209 800.636C458.902 799.836 460.669 799.436 462.509 799.436C464.029 799.436 465.504 799.716 466.935 800.276C468.447 800.756 469.714 801.555 470.735 802.675C471.838 803.715 472.698 804.955 473.314 806.395C474.01 807.835 474.506 809.314 474.801 810.834C475.097 812.274 475.312 813.754 475.447 815.274C475.582 816.793 475.637 818.313 475.612 819.833L460.732 819.833C460.745 819.033 460.679 818.193 460.534 817.313C460.468 816.433 460.242 815.593 459.855 814.794C459.549 813.994 458.999 813.354 458.207 812.874C457.496 812.314 456.701 812.034 455.821 812.034C454.621 812.034 453.534 812.474 452.559 813.354C451.666 814.154 450.93 815.114 450.352 816.233C449.774 817.273 449.316 818.393 448.976 819.593C448.718 820.713 448.498 821.873 448.319 823.072C448.139 824.272 447.999 825.472 447.899 826.672C447.799 827.872 447.74 829.072 447.72 830.271L447.163 863.987L432.283 863.987Z" fill="#B57272"/>
<path opacity="0.1" d="M199.643 1017.99L200.891 942.397L187.331 942.397L187.539 929.799L215.979 929.799L214.731 1005.39L228.291 1005.39L228.083 1017.99L199.643 1017.99ZM259.027 1018.95C257.507 1018.95 255.99 1018.79 254.475 1018.47C252.96 1018.15 251.53 1017.59 250.183 1016.79C248.917 1015.91 247.815 1014.83 246.876 1013.55C246.018 1012.27 245.28 1010.91 244.664 1009.47C244.128 1008.03 243.752 1006.55 243.537 1005.03C243.402 1003.51 243.347 1001.99 243.372 1000.47C243.408 998.31 243.684 996.15 244.199 993.99C244.715 991.83 245.587 989.911 246.814 988.231C248.123 986.471 249.668 984.991 251.448 983.792C253.309 982.512 255.245 981.512 257.257 980.792C259.349 980.072 261.437 979.592 263.521 979.352C265.686 979.032 267.849 978.872 270.009 978.872L275.889 978.872L275.954 974.913C275.973 973.793 275.831 972.673 275.53 971.553C275.31 970.353 274.806 969.354 274.019 968.554C273.234 967.674 272.284 967.034 271.171 966.634C270.058 966.234 268.901 966.034 267.701 966.034C266.661 966.034 265.618 966.194 264.573 966.514C263.609 966.754 262.721 967.234 261.909 967.954C261.099 968.594 260.485 969.394 260.07 970.353C259.654 971.313 259.437 972.313 259.42 973.353L244.54 973.353C244.57 971.513 244.841 969.673 245.351 967.834C245.943 965.914 246.772 964.154 247.838 962.554C248.905 960.955 250.168 959.555 251.628 958.355C253.169 957.075 254.825 956.075 256.597 955.355C258.449 954.636 260.297 954.156 262.141 953.916C264.066 953.596 265.989 953.436 267.909 953.436C269.909 953.436 271.906 953.596 273.901 953.916C275.896 954.236 277.806 954.796 279.633 955.595C281.46 956.395 283.122 957.475 284.62 958.835C286.199 960.115 287.454 961.635 288.384 963.394C289.317 965.074 289.966 966.914 290.333 968.914C290.7 970.913 290.867 972.913 290.834 974.913L290.123 1017.99L275.243 1017.99L275.392 1008.99C274.647 1010.51 273.703 1011.95 272.56 1013.31C271.499 1014.59 270.241 1015.67 268.787 1016.55C267.334 1017.35 265.764 1017.95 264.077 1018.35C262.391 1018.75 260.707 1018.95 259.027 1018.95ZM265.355 1006.35C266.715 1006.35 268.039 1006.15 269.325 1005.75C270.692 1005.35 271.863 1004.67 272.839 1003.71C273.815 1002.75 274.513 1001.63 274.934 1000.35C275.355 999.069 275.577 997.75 275.6 996.39L275.681 991.471L269.801 991.471C268.921 991.471 268.04 991.511 267.159 991.59C266.358 991.67 265.515 991.83 264.631 992.07C263.828 992.23 263.024 992.51 262.217 992.91C261.412 993.23 260.684 993.71 260.033 994.35C259.464 994.91 259.012 995.63 258.678 996.51C258.345 997.31 258.171 998.15 258.156 999.029C258.14 999.989 258.284 1000.95 258.589 1001.91C258.893 1002.87 259.359 1003.71 259.987 1004.43C260.695 1005.15 261.527 1005.67 262.481 1005.99C263.437 1006.23 264.395 1006.35 265.355 1006.35ZM303.997 1042.58L304.205 1029.99L311.165 1029.99C311.965 1029.99 312.726 1029.91 313.449 1029.75C314.172 1029.59 314.818 1029.23 315.387 1028.67C315.955 1028.19 316.365 1027.59 316.617 1026.87C316.868 1026.15 317.081 1025.39 317.254 1024.59C317.681 1022.99 318.108 1021.35 318.535 1019.67C318.963 1017.99 319.351 1016.31 319.699 1014.63L306.413 954.396L321.653 954.396L327.873 991.95L334.613 954.396L349.853 954.396L331.727 1027.47C331.296 1029.31 330.707 1031.11 329.957 1032.86C329.288 1034.62 328.343 1036.18 327.12 1037.54C326.063 1038.58 324.889 1039.46 323.597 1040.18C322.385 1040.9 321.056 1041.42 319.611 1041.74C318.244 1042.14 316.8 1042.38 315.279 1042.46C313.838 1042.54 312.397 1042.58 310.957 1042.58L303.997 1042.58ZM387.307 1018.95C385.147 1018.95 382.951 1018.75 380.717 1018.35C378.564 1017.95 376.496 1017.23 374.513 1016.19C372.61 1015.15 370.912 1013.83 369.418 1012.23C367.925 1010.63 366.714 1008.83 365.787 1006.83C364.86 1004.83 364.215 1002.75 363.85 1000.59C363.566 998.43 363.442 996.23 363.479 993.99L363.737 978.392C363.773 976.233 363.968 974.073 364.324 971.913C364.761 969.673 365.435 967.594 366.347 965.674C367.34 963.674 368.61 961.875 370.156 960.275C371.704 958.595 373.446 957.235 375.383 956.195C377.321 955.155 379.372 954.436 381.539 954.036C383.786 953.636 385.989 953.436 388.149 953.436C390.309 953.436 392.466 953.636 394.619 954.036C396.852 954.436 398.921 955.155 400.823 956.195C402.726 957.235 404.424 958.595 405.916 960.275C407.41 961.875 408.58 963.674 409.427 965.674C410.355 967.594 410.961 969.673 411.244 971.913C411.608 974.073 411.773 976.233 411.737 978.392L411.505 992.43L378.385 992.43L378.359 993.99C378.336 995.43 378.431 996.91 378.646 998.43C378.862 999.869 379.36 1001.23 380.139 1002.51C380.919 1003.71 381.983 1004.67 383.331 1005.39C384.681 1006.03 386.075 1006.35 387.515 1006.35C388.555 1006.35 389.597 1006.23 390.641 1005.99C391.685 1005.75 392.612 1005.35 393.421 1004.79C394.312 1004.15 395.005 1003.35 395.501 1002.39C395.996 1001.43 396.253 1000.43 396.27 999.389L411.15 999.389C411.038 1001.31 410.647 1003.19 409.977 1005.03C409.387 1006.87 408.518 1008.59 407.372 1010.19C406.307 1011.71 405.004 1013.07 403.465 1014.27C401.926 1015.39 400.271 1016.31 398.499 1017.03C396.727 1017.75 394.879 1018.23 392.955 1018.47C391.11 1018.79 389.227 1018.95 387.307 1018.95ZM396.831 979.952L396.857 978.392C396.881 976.952 396.784 975.513 396.568 974.073C396.352 972.633 395.854 971.313 395.074 970.113C394.375 968.834 393.351 967.834 392.003 967.114C390.735 966.394 389.381 966.034 387.941 966.034C386.501 966.034 385.095 966.394 383.723 967.114C382.431 967.834 381.375 968.834 380.554 970.113C379.814 971.313 379.312 972.633 379.048 974.073C378.784 975.513 378.641 976.952 378.617 978.392L378.591 979.952L396.831 979.952ZM430.283 1017.99L431.333 954.396L446.213 954.396L445.991 967.834C446.5 966.074 447.129 964.354 447.876 962.674C448.704 960.995 449.69 959.435 450.834 957.995C452.057 956.555 453.516 955.435 455.209 954.636C456.902 953.836 458.669 953.436 460.509 953.436C462.029 953.436 463.504 953.716 464.935 954.276C466.447 954.756 467.714 955.555 468.735 956.675C469.838 957.715 470.698 958.955 471.314 960.395C472.01 961.835 472.506 963.314 472.801 964.834C473.097 966.274 473.312 967.754 473.447 969.274C473.582 970.793 473.637 972.313 473.612 973.833L458.732 973.833C458.745 973.033 458.679 972.193 458.534 971.313C458.468 970.433 458.242 969.593 457.855 968.794C457.549 967.994 456.999 967.354 456.207 966.874C455.496 966.314 454.701 966.034 453.821 966.034C452.621 966.034 451.534 966.474 450.559 967.354C449.666 968.154 448.93 969.114 448.352 970.233C447.774 971.273 447.316 972.393 446.976 973.593C446.718 974.713 446.498 975.873 446.319 977.072C446.139 978.272 445.999 979.472 445.899 980.672C445.799 981.872 445.74 983.072 445.72 984.271L445.163 1017.99L430.283 1017.99Z" fill="#C58C74"/>
<path opacity="0.7" d="M201.643 709.987L202.891 634.397L189.331 634.397L189.539 621.799L217.979 621.799L216.731 697.389L230.291 697.389L230.083 709.987L201.643 709.987ZM261.027 710.947C259.507 710.947 257.99 710.787 256.475 710.467C254.96 710.147 253.53 709.587 252.183 708.787C250.917 707.907 249.815 706.827 248.876 705.547C248.018 704.268 247.28 702.908 246.664 701.468C246.128 700.028 245.752 698.548 245.537 697.029C245.402 695.509 245.347 693.989 245.372 692.469C245.408 690.31 245.684 688.15 246.199 685.99C246.715 683.83 247.587 681.911 248.814 680.231C250.123 678.471 251.668 676.991 253.448 675.792C255.309 674.512 257.245 673.512 259.257 672.792C261.349 672.072 263.437 671.592 265.521 671.352C267.686 671.032 269.849 670.872 272.009 670.872L277.889 670.872L277.954 666.913C277.973 665.793 277.831 664.673 277.53 663.553C277.31 662.353 276.806 661.354 276.019 660.554C275.234 659.674 274.284 659.034 273.171 658.634C272.058 658.234 270.901 658.034 269.701 658.034C268.661 658.034 267.618 658.194 266.573 658.514C265.609 658.754 264.721 659.234 263.909 659.954C263.099 660.594 262.485 661.394 262.07 662.353C261.654 663.313 261.437 664.313 261.42 665.353L246.54 665.353C246.57 663.513 246.841 661.673 247.351 659.834C247.943 657.914 248.772 656.154 249.838 654.554C250.905 652.955 252.168 651.555 253.628 650.355C255.169 649.075 256.825 648.075 258.597 647.355C260.449 646.636 262.297 646.156 264.141 645.916C266.066 645.596 267.989 645.436 269.909 645.436C271.909 645.436 273.906 645.596 275.901 645.916C277.896 646.236 279.806 646.796 281.633 647.595C283.46 648.395 285.122 649.475 286.62 650.835C288.199 652.115 289.454 653.635 290.384 655.394C291.317 657.074 291.966 658.914 292.333 660.914C292.7 662.913 292.867 664.913 292.834 666.913L292.123 709.987L277.243 709.987L277.392 700.988C276.647 702.508 275.703 703.948 274.56 705.308C273.499 706.587 272.241 707.667 270.787 708.547C269.334 709.347 267.764 709.947 266.077 710.347C264.391 710.747 262.707 710.947 261.027 710.947ZM267.355 698.348C268.715 698.348 270.039 698.149 271.325 697.749C272.692 697.349 273.863 696.669 274.839 695.709C275.815 694.749 276.513 693.629 276.934 692.349C277.355 691.069 277.577 689.75 277.6 688.39L277.681 683.471L271.801 683.471C270.921 683.471 270.04 683.511 269.159 683.59C268.358 683.67 267.515 683.83 266.631 684.07C265.828 684.23 265.024 684.51 264.217 684.91C263.412 685.23 262.684 685.71 262.033 686.35C261.464 686.91 261.012 687.63 260.678 688.51C260.345 689.31 260.171 690.15 260.156 691.029C260.14 691.989 260.284 692.949 260.589 693.909C260.893 694.869 261.359 695.709 261.987 696.429C262.695 697.149 263.527 697.669 264.481 697.989C265.437 698.228 266.395 698.348 267.355 698.348ZM305.997 734.584L306.205 721.985L313.165 721.985C313.965 721.985 314.726 721.905 315.449 721.745C316.172 721.585 316.818 721.225 317.387 720.665C317.955 720.185 318.365 719.586 318.617 718.866C318.868 718.146 319.081 717.386 319.254 716.586C319.681 714.986 320.108 713.346 320.535 711.667C320.963 709.987 321.351 708.307 321.699 706.627L308.413 646.396L323.653 646.396L329.873 683.95L336.613 646.396L351.853 646.396L333.727 719.466C333.296 721.305 332.707 723.105 331.957 724.865C331.288 726.625 330.343 728.184 329.12 729.544C328.063 730.584 326.889 731.464 325.597 732.184C324.385 732.904 323.056 733.424 321.611 733.744C320.244 734.144 318.8 734.384 317.279 734.464C315.838 734.544 314.397 734.584 312.957 734.584L305.997 734.584ZM389.307 710.947C387.147 710.947 384.951 710.747 382.717 710.347C380.564 709.947 378.496 709.227 376.513 708.187C374.61 707.147 372.912 705.827 371.418 704.228C369.925 702.628 368.714 700.828 367.787 698.828C366.86 696.829 366.215 694.749 365.85 692.589C365.566 690.43 365.442 688.23 365.479 685.99L365.737 670.392C365.773 668.233 365.968 666.073 366.324 663.913C366.761 661.673 367.435 659.594 368.347 657.674C369.34 655.674 370.61 653.875 372.156 652.275C373.704 650.595 375.446 649.235 377.383 648.195C379.321 647.155 381.372 646.436 383.539 646.036C385.786 645.636 387.989 645.436 390.149 645.436C392.309 645.436 394.466 645.636 396.619 646.036C398.852 646.436 400.921 647.155 402.823 648.195C404.726 649.235 406.424 650.595 407.916 652.275C409.41 653.875 410.58 655.674 411.427 657.674C412.355 659.594 412.961 661.673 413.244 663.913C413.608 666.073 413.773 668.233 413.737 670.392L413.505 684.43L380.385 684.43L380.359 685.99C380.336 687.43 380.431 688.91 380.646 690.43C380.862 691.869 381.36 693.229 382.139 694.509C382.919 695.709 383.983 696.669 385.331 697.389C386.681 698.029 388.075 698.348 389.515 698.348C390.555 698.348 391.597 698.228 392.641 697.989C393.685 697.749 394.612 697.349 395.421 696.789C396.312 696.149 397.005 695.349 397.501 694.389C397.996 693.429 398.253 692.429 398.27 691.389L413.15 691.389C413.038 693.309 412.647 695.189 411.977 697.029C411.387 698.868 410.518 700.588 409.372 702.188C408.307 703.708 407.004 705.068 405.465 706.267C403.926 707.387 402.271 708.307 400.499 709.027C398.727 709.747 396.879 710.227 394.955 710.467C393.11 710.787 391.227 710.947 389.307 710.947ZM398.831 671.952L398.857 670.392C398.881 668.952 398.784 667.513 398.568 666.073C398.352 664.633 397.854 663.313 397.074 662.113C396.375 660.834 395.351 659.834 394.003 659.114C392.735 658.394 391.381 658.034 389.941 658.034C388.501 658.034 387.095 658.394 385.723 659.114C384.431 659.834 383.375 660.834 382.554 662.113C381.814 663.313 381.312 664.633 381.048 666.073C380.784 667.513 380.641 668.952 380.617 670.392L380.591 671.952L398.831 671.952ZM432.283 709.987L433.333 646.396L448.213 646.396L447.991 659.834C448.5 658.074 449.129 656.354 449.876 654.674C450.704 652.995 451.69 651.435 452.834 649.995C454.057 648.555 455.516 647.435 457.209 646.636C458.902 645.836 460.669 645.436 462.509 645.436C464.029 645.436 465.504 645.716 466.935 646.276C468.447 646.756 469.714 647.555 470.735 648.675C471.838 649.715 472.698 650.955 473.314 652.395C474.01 653.835 474.506 655.314 474.801 656.834C475.097 658.274 475.312 659.754 475.447 661.274C475.582 662.793 475.637 664.313 475.612 665.833L460.732 665.833C460.745 665.033 460.679 664.193 460.534 663.313C460.468 662.433 460.242 661.593 459.855 660.794C459.549 659.994 458.999 659.354 458.207 658.874C457.496 658.314 456.701 658.034 455.821 658.034C454.621 658.034 453.534 658.474 452.559 659.354C451.666 660.154 450.93 661.114 450.352 662.233C449.774 663.273 449.316 664.393 448.976 665.593C448.718 666.713 448.498 667.873 448.319 669.072C448.139 670.272 447.999 671.472 447.899 672.672C447.799 673.872 447.74 675.072 447.72 676.271L447.163 709.987L432.283 709.987Z" fill="#7A598F"/>
<path d="M204.643 555.987L205.891 480.397L192.331 480.397L192.539 467.799L220.979 467.799L219.731 543.389L233.291 543.389L233.083 555.987L204.643 555.987ZM264.027 556.947C262.507 556.947 260.99 556.787 259.475 556.467C257.96 556.147 256.53 555.587 255.183 554.787C253.917 553.907 252.815 552.827 251.876 551.547C251.018 550.268 250.28 548.908 249.664 547.468C249.128 546.028 248.752 544.548 248.537 543.029C248.402 541.509 248.347 539.989 248.372 538.469C248.408 536.31 248.684 534.15 249.199 531.99C249.715 529.83 250.587 527.911 251.814 526.231C253.123 524.471 254.668 522.991 256.448 521.792C258.309 520.512 260.245 519.512 262.257 518.792C264.349 518.072 266.437 517.592 268.521 517.352C270.686 517.032 272.849 516.872 275.009 516.872L280.889 516.872L280.954 512.913C280.973 511.793 280.831 510.673 280.53 509.553C280.31 508.353 279.806 507.354 279.019 506.554C278.234 505.674 277.284 505.034 276.171 504.634C275.058 504.234 273.901 504.034 272.701 504.034C271.661 504.034 270.618 504.194 269.573 504.514C268.609 504.754 267.721 505.234 266.909 505.954C266.099 506.594 265.485 507.394 265.07 508.353C264.654 509.313 264.437 510.313 264.42 511.353L249.54 511.353C249.57 509.513 249.841 507.673 250.351 505.834C250.943 503.914 251.772 502.154 252.838 500.554C253.905 498.955 255.168 497.555 256.628 496.355C258.169 495.075 259.825 494.075 261.597 493.355C263.449 492.636 265.297 492.156 267.141 491.916C269.066 491.596 270.989 491.436 272.909 491.436C274.909 491.436 276.906 491.596 278.901 491.916C280.896 492.236 282.806 492.796 284.633 493.595C286.46 494.395 288.122 495.475 289.62 496.835C291.199 498.115 292.454 499.635 293.384 501.394C294.317 503.074 294.966 504.914 295.333 506.914C295.7 508.913 295.867 510.913 295.834 512.913L295.123 555.987L280.243 555.987L280.392 546.988C279.647 548.508 278.703 549.948 277.56 551.308C276.499 552.587 275.241 553.667 273.787 554.547C272.334 555.347 270.764 555.947 269.077 556.347C267.391 556.747 265.707 556.947 264.027 556.947ZM270.355 544.348C271.715 544.348 273.039 544.149 274.325 543.749C275.692 543.349 276.863 542.669 277.839 541.709C278.815 540.749 279.513 539.629 279.934 538.349C280.355 537.069 280.577 535.75 280.6 534.39L280.681 529.471L274.801 529.471C273.921 529.471 273.04 529.511 272.159 529.59C271.358 529.67 270.515 529.83 269.631 530.07C268.828 530.23 268.024 530.51 267.217 530.91C266.412 531.23 265.684 531.71 265.033 532.35C264.464 532.91 264.012 533.63 263.678 534.51C263.345 535.31 263.171 536.15 263.156 537.029C263.14 537.989 263.284 538.949 263.589 539.909C263.893 540.869 264.359 541.709 264.987 542.429C265.695 543.149 266.527 543.669 267.481 543.989C268.437 544.228 269.395 544.348 270.355 544.348ZM308.997 580.584L309.205 567.985L316.165 567.985C316.965 567.985 317.726 567.905 318.449 567.745C319.172 567.585 319.818 567.225 320.387 566.665C320.955 566.185 321.365 565.586 321.617 564.866C321.868 564.146 322.081 563.386 322.254 562.586C322.681 560.986 323.108 559.346 323.535 557.667C323.963 555.987 324.351 554.307 324.699 552.627L311.413 492.396L326.653 492.396L332.873 529.95L339.613 492.396L354.853 492.396L336.727 565.466C336.296 567.305 335.707 569.105 334.957 570.865C334.288 572.625 333.343 574.184 332.12 575.544C331.063 576.584 329.889 577.464 328.597 578.184C327.385 578.904 326.056 579.424 324.611 579.744C323.244 580.144 321.8 580.384 320.279 580.464C318.838 580.544 317.397 580.584 315.957 580.584L308.997 580.584ZM392.307 556.947C390.147 556.947 387.951 556.747 385.717 556.347C383.564 555.947 381.496 555.227 379.513 554.187C377.61 553.147 375.912 551.827 374.418 550.228C372.925 548.628 371.714 546.828 370.787 544.828C369.86 542.829 369.215 540.749 368.85 538.589C368.566 536.43 368.442 534.23 368.479 531.99L368.737 516.392C368.773 514.233 368.968 512.073 369.324 509.913C369.761 507.673 370.435 505.594 371.347 503.674C372.34 501.674 373.61 499.875 375.156 498.275C376.704 496.595 378.446 495.235 380.383 494.195C382.321 493.155 384.372 492.436 386.539 492.036C388.786 491.636 390.989 491.436 393.149 491.436C395.309 491.436 397.466 491.636 399.619 492.036C401.852 492.436 403.921 493.155 405.823 494.195C407.726 495.235 409.424 496.595 410.916 498.275C412.41 499.875 413.58 501.674 414.427 503.674C415.355 505.594 415.961 507.673 416.244 509.913C416.608 512.073 416.773 514.233 416.737 516.392L416.505 530.43L383.385 530.43L383.359 531.99C383.336 533.43 383.431 534.91 383.646 536.43C383.862 537.869 384.36 539.229 385.139 540.509C385.919 541.709 386.983 542.669 388.331 543.389C389.681 544.029 391.075 544.348 392.515 544.348C393.555 544.348 394.597 544.228 395.641 543.989C396.685 543.749 397.612 543.349 398.421 542.789C399.312 542.149 400.005 541.349 400.501 540.389C400.996 539.429 401.253 538.429 401.27 537.389L416.15 537.389C416.038 539.309 415.647 541.189 414.977 543.029C414.387 544.868 413.518 546.588 412.372 548.188C411.307 549.708 410.004 551.068 408.465 552.267C406.926 553.387 405.271 554.307 403.499 555.027C401.727 555.747 399.879 556.227 397.955 556.467C396.11 556.787 394.227 556.947 392.307 556.947ZM401.831 517.952L401.857 516.392C401.881 514.952 401.784 513.513 401.568 512.073C401.352 510.633 400.854 509.313 400.074 508.113C399.375 506.834 398.351 505.834 397.003 505.114C395.735 504.394 394.381 504.034 392.941 504.034C391.501 504.034 390.095 504.394 388.723 505.114C387.431 505.834 386.375 506.834 385.554 508.113C384.814 509.313 384.312 510.633 384.048 512.073C383.784 513.513 383.641 514.952 383.617 516.392L383.591 517.952L401.831 517.952ZM435.283 555.987L436.333 492.396L451.213 492.396L450.991 505.834C451.5 504.074 452.129 502.354 452.876 500.674C453.704 498.995 454.69 497.435 455.834 495.995C457.057 494.555 458.516 493.435 460.209 492.636C461.902 491.836 463.669 491.436 465.509 491.436C467.029 491.436 468.504 491.716 469.935 492.276C471.447 492.756 472.714 493.555 473.735 494.675C474.838 495.715 475.698 496.955 476.314 498.395C477.01 499.835 477.506 501.314 477.801 502.834C478.097 504.274 478.312 505.754 478.447 507.274C478.582 508.793 478.637 510.313 478.612 511.833L463.732 511.833C463.745 511.033 463.679 510.193 463.534 509.313C463.468 508.433 463.242 507.593 462.855 506.794C462.549 505.994 461.999 505.354 461.207 504.874C460.496 504.314 459.701 504.034 458.821 504.034C457.621 504.034 456.534 504.474 455.559 505.354C454.666 506.154 453.93 507.114 453.352 508.233C452.774 509.273 452.316 510.393 451.976 511.593C451.718 512.713 451.498 513.873 451.319 515.072C451.139 516.272 450.999 517.472 450.899 518.672C450.799 519.872 450.74 521.072 450.72 522.271L450.163 555.987L435.283 555.987Z" fill="#3D4372"/>
<path opacity="0.1" d="M649.554 853H1237L1093.33 1053H497L649.554 853Z" fill="#C58C74"/>
<path opacity="0.4" d="M649.554 717H1237L1093.33 917H497L649.554 717Z" fill="#B57272"/>
<path opacity="0.7" d="M665.554 577H1253L1109.33 777H513L665.554 577Z" fill="#7A598F"/>
<path d="M689.054 437H1276.5L1132.83 637H536.5L689.054 437Z" fill="#3D4372"/>
</g>
<defs>
<filter id="filter0_d_9_70" x="78.332" y="0.679504" width="1296.34" height="1495.64" filterUnits="userSpaceOnUse" color-interpolation-filters="sRGB">
<feFlood flood-opacity="0" result="BackgroundImageFix"/>
<feColorMatrix in="SourceAlpha" type="matrix" values="0 0 0 0 0 0 0 0 0 0 0 0 0 0 0 0 0 0 127 0" result="hardAlpha"/>
<feOffset dy="4"/>
<feGaussianBlur stdDeviation="2"/>
<feComposite in2="hardAlpha" operator="out"/>
<feColorMatrix type="matrix" values="0 0 0 0 0 0 0 0 0 0 0 0 0 0 0 0 0 0 0.25 0"/>
<feBlend mode="normal" in2="BackgroundImageFix" result="effect1_dropShadow_9_70"/>
<feBlend mode="normal" in="SourceGraphic" in2="effect1_dropShadow_9_70" result="shape"/>
</filter>
<filter id="filter1_d_9_70" x="93.332" y="18" width="1266.34" height="1461" filterUnits="userSpaceOnUse" color-interpolation-filters="sRGB">
<feFlood flood-opacity="0" result="BackgroundImageFix"/>
<feColorMatrix in="SourceAlpha" type="matrix" values="0 0 0 0 0 0 0 0 0 0 0 0 0 0 0 0 0 0 127 0" result="hardAlpha"/>
<feOffset dy="4"/>
<feGaussianBlur stdDeviation="2"/>
<feComposite in2="hardAlpha" operator="out"/>
<feColorMatrix type="matrix" values="0 0 0 0 0 0 0 0 0 0 0 0 0 0 0 0 0 0 0.25 0"/>
<feBlend mode="normal" in2="BackgroundImageFix" result="effect1_dropShadow_9_70"/>
<feBlend mode="normal" in="SourceGraphic" in2="effect1_dropShadow_9_70" result="shape"/>
</filter>
<filter id="filter2_d_9_70" x="181.677" y="437" width="1098.82" height="624" filterUnits="userSpaceOnUse" color-interpolation-filters="sRGB">
<feFlood flood-opacity="0" result="BackgroundImageFix"/>
<feColorMatrix in="SourceAlpha" type="matrix" values="0 0 0 0 0 0 0 0 0 0 0 0 0 0 0 0 0 0 127 0" result="hardAlpha"/>
<feOffset dy="4"/>
<feGaussianBlur stdDeviation="2"/>
<feComposite in2="hardAlpha" operator="out"/>
<feColorMatrix type="matrix" values="0 0 0 0 0 0 0 0 0 0 0 0 0 0 0 0 0 0 0.25 0"/>
<feBlend mode="normal" in2="BackgroundImageFix" result="effect1_dropShadow_9_70"/>
<feBlend mode="normal" in="SourceGraphic" in2="effect1_dropShadow_9_70" result="shape"/>
</filter>
<linearGradient id="paint0_linear_9_70" x1="726.5" y1="18" x2="726.5" y2="1471" gradientUnits="userSpaceOnUse">
<stop stop-color="#3D4372"/>
<stop offset="0.340884" stop-color="#7A598F" stop-opacity="0.7"/>
<stop offset="0.675416" stop-color="#B57272" stop-opacity="0.4"/>
<stop offset="1" stop-color="#C58C74" stop-opacity="0.1"/>
</linearGradient>
</defs>
</svg>
