<svg width="1453" height="1493" viewBox="0 0 1453 1493" fill="none" xmlns="http://www.w3.org/2000/svg">
<path d="M730.75 12.6388L726.5 10.185L722.25 12.6388L93.0825 375.889L88.8325 378.343V383.25V1109.75V1114.66L93.0825 1117.11L722.25 1480.36L726.5 1482.81L730.75 1480.36L1359.92 1117.11L1364.17 1114.66V1109.75V383.25V378.343L1359.92 375.889L730.75 12.6388Z" fill="#F8F3EF" stroke="url(#paint0_linear_9_70)" stroke-width="17"/>
<path d="M726.5 20L1355.67 383.25V1109.75L726.5 1473L97.3325 1109.75V383.25L726.5 20Z" fill="#F8F3EF"/>
<path opacity="0.4" d="M201.643 865.987L202.891 790.397L189.331 790.397L189.539 777.799L217.979 777.799L216.731 853.389L230.291 853.389L230.083 865.987L201.643 865.987ZM261.027 866.947C259.507 866.947 257.99 866.787 256.475 866.467C254.96 866.147 253.53 865.587 252.183 864.787C250.917 863.907 249.815 862.827 248.876 861.547C248.018 860.268 247.28 858.908 246.664 857.468C246.128 856.028 245.752 854.548 245.537 853.029C245.402 851.509 245.347 849.989 245.372 848.469C245.408 846.31 245.684 844.15 246.199 841.99C246.715 839.83 247.587 837.911 248.814 836.231C250.123 834.471 251.668 832.991 253.448 831.792C255.309 830.512 257.245 829.512 259.257 828.792C261.349 828.072 263.437 827.592 265.521 827.352C267.686 827.032 269.849 826.872 272.009 826.872L277.889 826.872L277.954 822.913C277.973 821.793 277.831 820.673 277.53 819.553C277.31 818.353 276.806 817.354 276.019 816.554C275.234 815.674 274.284 815.034 273.171 814.634C272.058 814.234 270.901 814.034 269.701 814.034C268.661 814.034 267.618 814.194 266.573 814.514C265.609 814.754 264.721 815.234 263.909 815.954C263.099 816.594 262.485 817.394 262.07 818.353C261.654 819.313 261.437 820.313 261.42 821.353L246.54 821.353C246.57 819.513 246.841 817.673 247.351 815.834C247.943 813.914 248.772 812.154 249.838 810.554C250.905 808.955 252.168 807.555 253.628 806.355C255.169 805.075 256.825 804.075 258.597 803.355C260.449 802.636 262.297 802.156 264.141 801.916C266.066 801.596 267.989 801.436 269.909 801.436C271.909 801.436 273.906 801.596 275.901 801.916C277.896 802.236 279.806 802.796 281.633 803.595C283.46 804.395 285.122 805.475 286.62 806.835C288.199 808.115 289.454 809.635 290.384 811.394C291.317 813.074 291.966 814.914 292.333 816.914C292.7 818.913 292.867 820.913 292.834 822.913L292.123 865.987L277.243 865.987L277.392 856.988C276.647 858.508 275.703 859.948 274.56 861.308C273.499 862.587 272.241 863.667 270.787 864.547C269.334 865.347 267.764 865.947 266.077 866.347C264.391 866.747 262.707 866.947 261.027 866.947ZM267.355 854.348C268.715 854.348 270.039 854.149 271.325 853.749C272.692 853.349 273.863 852.669 274.839 851.709C275.815 850.749 276.513 849.629 276.934 848.349C277.355 847.069 277.577 845.75 277.6 844.39L277.681 839.471L271.801 839.471C270.921 839.471 270.04 839.511 269.159 839.59C268.358 839.67 267.515 839.83 266.631 840.07C265.828 840.23 265.024 840.51 264.217 840.91C263.412 841.23 262.684 841.71 262.033 842.35C261.464 842.91 261.012 843.63 260.678 844.51C260.345 845.31 260.171 846.15 260.156 847.029C260.14 847.989 260.284 848.949 260.589 849.909C260.893 850.869 261.359 851.709 261.987 852.429C262.695 853.149 263.527 853.669 264.481 853.989C265.437 854.228 266.395 854.348 267.355 854.348ZM305.997 890.584L306.205 877.985L313.165 877.985C313.965 877.985 314.726 877.905 315.449 877.745C316.172 877.585 316.818 877.225 317.387 876.665C317.955 876.185 318.365 875.586 318.617 874.866C318.868 874.146 319.081 873.386 319.254 872.586C319.681 870.986 320.108 869.346 320.535 867.667C320.963 865.987 321.351 864.307 321.699 862.627L308.413 802.396L323.653 802.396L329.873 839.95L336.613 802.396L351.853 802.396L333.727 875.466C333.296 877.305 332.707 879.105 331.957 880.865C331.288 882.625 330.343 884.184 329.12 885.544C328.063 886.584 326.889 887.464 325.597 888.184C324.385 888.904 323.056 889.424 321.611 889.744C320.244 890.144 318.8 890.384 317.279 890.464C315.838 890.544 314.397 890.584 312.957 890.584L305.997 890.584ZM389.307 866.947C387.147 866.947 384.951 866.747 382.717 866.347C380.564 865.947 378.496 865.227 376.513 864.187C374.61 863.147 372.912 861.827 371.418 860.228C369.925 858.628 368.714 856.828 367.787 854.828C366.86 852.829 366.215 850.749 365.85 848.589C365.566 846.43 365.442 844.23 365.479 841.99L365.737 826.392C365.773 824.233 365.968 822.073 366.324 819.913C366.761 817.673 367.435 815.594 368.347 813.674C369.34 811.674 370.61 809.875 372.156 808.275C373.704 806.595 375.446 805.235 377.383 804.195C379.321 803.155 381.372 802.436 383.539 802.036C385.786 801.636 387.989 801.436 390.149 801.436C392.309 801.436 394.466 801.636 396.619 802.036C398.852 802.436 400.921 803.155 402.823 804.195C404.726 805.235 406.424 806.595 407.916 808.275C409.41 809.875 410.58 811.674 411.427 813.674C412.355 815.594 412.961 817.673 413.244 819.913C413.608 822.073 413.773 824.233 413.737 826.392L413.505 840.43L380.385 840.43L380.359 841.99C380.336 843.43 380.431 844.91 380.646 846.43C380.862 847.869 381.36 849.229 382.139 850.509C382.919 851.709 383.983 852.669 385.331 853.389C386.681 854.029 388.075 854.348 389.515 854.348C390.555 854.348 391.597 854.228 392.641 853.989C393.685 853.749 394.612 853.349 395.421 852.789C396.312 852.149 397.005 851.349 397.501 850.389C397.996 849.429 398.253 848.429 398.27 847.389L413.15 847.389C413.038 849.309 412.647 851.189 411.977 853.029C411.387 854.868 410.518 856.588 409.372 858.188C408.307 859.708 407.004 861.068 405.465 862.267C403.926 863.387 402.271 864.307 400.499 865.027C398.727 865.747 396.879 866.227 394.955 866.467C393.11 866.787 391.227 866.947 389.307 866.947ZM398.831 827.952L398.857 826.392C398.881 824.952 398.784 823.513 398.568 822.073C398.352 820.633 397.854 819.313 397.074 818.113C396.375 816.834 395.351 815.834 394.003 815.114C392.735 814.394 391.381 814.034 389.941 814.034C388.501 814.034 387.095 814.394 385.723 815.114C384.431 815.834 383.375 816.834 382.554 818.113C381.814 819.313 381.312 820.633 381.048 822.073C380.784 823.513 380.641 824.952 380.617 826.392L380.591 827.952L398.831 827.952ZM432.283 865.987L433.333 802.396L448.213 802.396L447.991 815.834C448.5 814.074 449.129 812.354 449.876 810.674C450.704 808.995 451.69 807.435 452.834 805.995C454.057 804.555 455.516 803.435 457.209 802.636C458.902 801.836 460.669 801.436 462.509 801.436C464.029 801.436 465.504 801.716 466.935 802.276C468.447 802.756 469.714 803.555 470.735 804.675C471.838 805.715 472.698 806.955 473.314 808.395C474.01 809.835 474.506 811.314 474.801 812.834C475.097 814.274 475.312 815.754 475.447 817.274C475.582 818.793 475.637 820.313 475.612 821.833L460.732 821.833C460.745 821.033 460.679 820.193 460.534 819.313C460.468 818.433 460.242 817.593 459.855 816.794C459.549 815.994 458.999 815.354 458.207 814.874C457.496 814.314 456.701 814.034 455.821 814.034C454.621 814.034 453.534 814.474 452.559 815.354C451.666 816.154 450.93 817.114 450.352 818.233C449.774 819.273 449.316 820.393 448.976 821.593C448.718 822.713 448.498 823.873 448.319 825.072C448.139 826.272 447.999 827.472 447.899 828.672C447.799 829.872 447.74 831.072 447.72 832.271L447.163 865.987L432.283 865.987Z" fill="#B57272"/>
<path opacity="0.1" d="M199.643 1019.99L200.891 944.397L187.331 944.397L187.539 931.799L215.979 931.799L214.731 1007.39L228.291 1007.39L228.083 1019.99L199.643 1019.99ZM259.027 1020.95C257.507 1020.95 255.99 1020.79 254.475 1020.47C252.96 1020.15 251.53 1019.59 250.183 1018.79C248.917 1017.91 247.815 1016.83 246.876 1015.55C246.018 1014.27 245.28 1012.91 244.664 1011.47C244.128 1010.03 243.752 1008.55 243.537 1007.03C243.402 1005.51 243.347 1003.99 243.372 1002.47C243.408 1000.31 243.684 998.15 244.199 995.99C244.715 993.83 245.587 991.911 246.814 990.231C248.123 988.471 249.668 986.991 251.448 985.792C253.309 984.512 255.245 983.512 257.257 982.792C259.349 982.072 261.437 981.592 263.521 981.352C265.686 981.032 267.849 980.872 270.009 980.872L275.889 980.872L275.954 976.913C275.973 975.793 275.831 974.673 275.53 973.553C275.31 972.353 274.806 971.354 274.019 970.554C273.234 969.674 272.284 969.034 271.171 968.634C270.058 968.234 268.901 968.034 267.701 968.034C266.661 968.034 265.618 968.194 264.573 968.514C263.609 968.754 262.721 969.234 261.909 969.954C261.099 970.594 260.485 971.394 260.07 972.353C259.654 973.313 259.437 974.313 259.42 975.353L244.54 975.353C244.57 973.513 244.841 971.673 245.351 969.834C245.943 967.914 246.772 966.154 247.838 964.554C248.905 962.955 250.168 961.555 251.628 960.355C253.169 959.075 254.825 958.075 256.597 957.355C258.449 956.636 260.297 956.156 262.141 955.916C264.066 955.596 265.989 955.436 267.909 955.436C269.909 955.436 271.906 955.596 273.901 955.916C275.896 956.236 277.806 956.796 279.633 957.595C281.46 958.395 283.122 959.475 284.62 960.835C286.199 962.115 287.454 963.635 288.384 965.394C289.317 967.074 289.966 968.914 290.333 970.914C290.7 972.913 290.867 974.913 290.834 976.913L290.123 1019.99L275.243 1019.99L275.392 1010.99C274.647 1012.51 273.703 1013.95 272.56 1015.31C271.499 1016.59 270.241 1017.67 268.787 1018.55C267.334 1019.35 265.764 1019.95 264.077 1020.35C262.391 1020.75 260.707 1020.95 259.027 1020.95ZM265.355 1008.35C266.715 1008.35 268.039 1008.15 269.325 1007.75C270.692 1007.35 271.863 1006.67 272.839 1005.71C273.815 1004.75 274.513 1003.63 274.934 1002.35C275.355 1001.07 275.577 999.75 275.6 998.39L275.681 993.471L269.801 993.471C268.921 993.471 268.04 993.511 267.159 993.59C266.358 993.67 265.515 993.83 264.631 994.07C263.828 994.23 263.024 994.51 262.217 994.91C261.412 995.23 260.684 995.71 260.033 996.35C259.464 996.91 259.012 997.63 258.678 998.51C258.345 999.31 258.171 1000.15 258.156 1001.03C258.14 1001.99 258.284 1002.95 258.589 1003.91C258.893 1004.87 259.359 1005.71 259.987 1006.43C260.695 1007.15 261.527 1007.67 262.481 1007.99C263.437 1008.23 264.395 1008.35 265.355 1008.35ZM303.997 1044.58L304.205 1031.99L311.165 1031.99C311.965 1031.99 312.726 1031.91 313.449 1031.75C314.172 1031.59 314.818 1031.23 315.387 1030.67C315.955 1030.19 316.365 1029.59 316.617 1028.87C316.868 1028.15 317.081 1027.39 317.254 1026.59C317.681 1024.99 318.108 1023.35 318.535 1021.67C318.963 1019.99 319.351 1018.31 319.699 1016.63L306.413 956.396L321.653 956.396L327.873 993.95L334.613 956.396L349.853 956.396L331.727 1029.47C331.296 1031.31 330.707 1033.11 329.957 1034.86C329.288 1036.62 328.343 1038.18 327.12 1039.54C326.063 1040.58 324.889 1041.46 323.597 1042.18C322.385 1042.9 321.056 1043.42 319.611 1043.74C318.244 1044.14 316.8 1044.38 315.279 1044.46C313.838 1044.54 312.397 1044.58 310.957 1044.58L303.997 1044.58ZM387.307 1020.95C385.147 1020.95 382.951 1020.75 380.717 1020.35C378.564 1019.95 376.496 1019.23 374.513 1018.19C372.61 1017.15 370.912 1015.83 369.418 1014.23C367.925 1012.63 366.714 1010.83 365.787 1008.83C364.86 1006.83 364.215 1004.75 363.85 1002.59C363.566 1000.43 363.442 998.23 363.479 995.99L363.737 980.392C363.773 978.233 363.968 976.073 364.324 973.913C364.761 971.673 365.435 969.594 366.347 967.674C367.34 965.674 368.61 963.875 370.156 962.275C371.704 960.595 373.446 959.235 375.383 958.195C377.321 957.155 379.372 956.436 381.539 956.036C383.786 955.636 385.989 955.436 388.149 955.436C390.309 955.436 392.466 955.636 394.619 956.036C396.852 956.436 398.921 957.155 400.823 958.195C402.726 959.235 404.424 960.595 405.916 962.275C407.41 963.875 408.58 965.674 409.427 967.674C410.355 969.594 410.961 971.673 411.244 973.913C411.608 976.073 411.773 978.233 411.737 980.392L411.505 994.43L378.385 994.43L378.359 995.99C378.336 997.43 378.431 998.91 378.646 1000.43C378.862 1001.87 379.36 1003.23 380.139 1004.51C380.919 1005.71 381.983 1006.67 383.331 1007.39C384.681 1008.03 386.075 1008.35 387.515 1008.35C388.555 1008.35 389.597 1008.23 390.641 1007.99C391.685 1007.75 392.612 1007.35 393.421 1006.79C394.312 1006.15 395.005 1005.35 395.501 1004.39C395.996 1003.43 396.253 1002.43 396.27 1001.39L411.15 1001.39C411.038 1003.31 410.647 1005.19 409.977 1007.03C409.387 1008.87 408.518 1010.59 407.372 1012.19C406.307 1013.71 405.004 1015.07 403.465 1016.27C401.926 1017.39 400.271 1018.31 398.499 1019.03C396.727 1019.75 394.879 1020.23 392.955 1020.47C391.11 1020.79 389.227 1020.95 387.307 1020.95ZM396.831 981.952L396.857 980.392C396.881 978.952 396.784 977.513 396.568 976.073C396.352 974.633 395.854 973.313 395.074 972.113C394.375 970.834 393.351 969.834 392.003 969.114C390.735 968.394 389.381 968.034 387.941 968.034C386.501 968.034 385.095 968.394 383.723 969.114C382.431 969.834 381.375 970.834 380.554 972.113C379.814 973.313 379.312 974.633 379.048 976.073C378.784 977.513 378.641 978.952 378.617 980.392L378.591 981.952L396.831 981.952ZM430.283 1019.99L431.333 956.396L446.213 956.396L445.991 969.834C446.5 968.074 447.129 966.354 447.876 964.674C448.704 962.995 449.69 961.435 450.834 959.995C452.057 958.555 453.516 957.435 455.209 956.636C456.902 955.836 458.669 955.436 460.509 955.436C462.029 955.436 463.504 955.716 464.935 956.276C466.447 956.756 467.714 957.555 468.735 958.675C469.838 959.715 470.698 960.955 471.314 962.395C472.01 963.835 472.506 965.314 472.801 966.834C473.097 968.274 473.312 969.754 473.447 971.274C473.582 972.793 473.637 974.313 473.612 975.833L458.732 975.833C458.745 975.033 458.679 974.193 458.534 973.313C458.468 972.433 458.242 971.593 457.855 970.794C457.549 969.994 456.999 969.354 456.207 968.874C455.496 968.314 454.701 968.034 453.821 968.034C452.621 968.034 451.534 968.474 450.559 969.354C449.666 970.154 448.93 971.114 448.352 972.233C447.774 973.273 447.316 974.393 446.976 975.593C446.718 976.713 446.498 977.873 446.319 979.072C446.139 980.272 445.999 981.472 445.899 982.672C445.799 983.872 445.74 985.072 445.72 986.271L445.163 1019.99L430.283 1019.99Z" fill="#C58C74"/>
<path opacity="0.7" d="M201.643 711.987L202.891 636.397L189.331 636.397L189.539 623.799L217.979 623.799L216.731 699.389L230.291 699.389L230.083 711.987L201.643 711.987ZM261.027 712.947C259.507 712.947 257.99 712.787 256.475 712.467C254.96 712.147 253.53 711.587 252.183 710.787C250.917 709.907 249.815 708.827 248.876 707.547C248.018 706.268 247.28 704.908 246.664 703.468C246.128 702.028 245.752 700.548 245.537 699.029C245.402 697.509 245.347 695.989 245.372 694.469C245.408 692.31 245.684 690.15 246.199 687.99C246.715 685.83 247.587 683.911 248.814 682.231C250.123 680.471 251.668 678.991 253.448 677.792C255.309 676.512 257.245 675.512 259.257 674.792C261.349 674.072 263.437 673.592 265.521 673.352C267.686 673.032 269.849 672.872 272.009 672.872L277.889 672.872L277.954 668.913C277.973 667.793 277.831 666.673 277.53 665.553C277.31 664.353 276.806 663.354 276.019 662.554C275.234 661.674 274.284 661.034 273.171 660.634C272.058 660.234 270.901 660.034 269.701 660.034C268.661 660.034 267.618 660.194 266.573 660.514C265.609 660.754 264.721 661.234 263.909 661.954C263.099 662.594 262.485 663.394 262.07 664.353C261.654 665.313 261.437 666.313 261.42 667.353L246.54 667.353C246.57 665.513 246.841 663.673 247.351 661.834C247.943 659.914 248.772 658.154 249.838 656.554C250.905 654.955 252.168 653.555 253.628 652.355C255.169 651.075 256.825 650.075 258.597 649.355C260.449 648.636 262.297 648.156 264.141 647.916C266.066 647.596 267.989 647.436 269.909 647.436C271.909 647.436 273.906 647.596 275.901 647.916C277.896 648.236 279.806 648.796 281.633 649.595C283.46 650.395 285.122 651.475 286.62 652.835C288.199 654.115 289.454 655.635 290.384 657.394C291.317 659.074 291.966 660.914 292.333 662.914C292.7 664.913 292.867 666.913 292.834 668.913L292.123 711.987L277.243 711.987L277.392 702.988C276.647 704.508 275.703 705.948 274.56 707.308C273.499 708.587 272.241 709.667 270.787 710.547C269.334 711.347 267.764 711.947 266.077 712.347C264.391 712.747 262.707 712.947 261.027 712.947ZM267.355 700.348C268.715 700.348 270.039 700.149 271.325 699.749C272.692 699.349 273.863 698.669 274.839 697.709C275.815 696.749 276.513 695.629 276.934 694.349C277.355 693.069 277.577 691.75 277.6 690.39L277.681 685.471L271.801 685.471C270.921 685.471 270.04 685.511 269.159 685.59C268.358 685.67 267.515 685.83 266.631 686.07C265.828 686.23 265.024 686.51 264.217 686.91C263.412 687.23 262.684 687.71 262.033 688.35C261.464 688.91 261.012 689.63 260.678 690.51C260.345 691.31 260.171 692.15 260.156 693.029C260.14 693.989 260.284 694.949 260.589 695.909C260.893 696.869 261.359 697.709 261.987 698.429C262.695 699.149 263.527 699.669 264.481 699.989C265.437 700.228 266.395 700.348 267.355 700.348ZM305.997 736.584L306.205 723.985L313.165 723.985C313.965 723.985 314.726 723.905 315.449 723.745C316.172 723.585 316.818 723.225 317.387 722.665C317.955 722.185 318.365 721.586 318.617 720.866C318.868 720.146 319.081 719.386 319.254 718.586C319.681 716.986 320.108 715.346 320.535 713.667C320.963 711.987 321.351 710.307 321.699 708.627L308.413 648.396L323.653 648.396L329.873 685.95L336.613 648.396L351.853 648.396L333.727 721.466C333.296 723.305 332.707 725.105 331.957 726.865C331.288 728.625 330.343 730.184 329.12 731.544C328.063 732.584 326.889 733.464 325.597 734.184C324.385 734.904 323.056 735.424 321.611 735.744C320.244 736.144 318.8 736.384 317.279 736.464C315.838 736.544 314.397 736.584 312.957 736.584L305.997 736.584ZM389.307 712.947C387.147 712.947 384.951 712.747 382.717 712.347C380.564 711.947 378.496 711.227 376.513 710.187C374.61 709.147 372.912 707.827 371.418 706.228C369.925 704.628 368.714 702.828 367.787 700.828C366.86 698.829 366.215 696.749 365.85 694.589C365.566 692.43 365.442 690.23 365.479 687.99L365.737 672.392C365.773 670.233 365.968 668.073 366.324 665.913C366.761 663.673 367.435 661.594 368.347 659.674C369.34 657.674 370.61 655.875 372.156 654.275C373.704 652.595 375.446 651.235 377.383 650.195C379.321 649.155 381.372 648.436 383.539 648.036C385.786 647.636 387.989 647.436 390.149 647.436C392.309 647.436 394.466 647.636 396.619 648.036C398.852 648.436 400.921 649.155 402.823 650.195C404.726 651.235 406.424 652.595 407.916 654.275C409.41 655.875 410.58 657.674 411.427 659.674C412.355 661.594 412.961 663.673 413.244 665.913C413.608 668.073 413.773 670.233 413.737 672.392L413.505 686.43L380.385 686.43L380.359 687.99C380.336 689.43 380.431 690.91 380.646 692.43C380.862 693.869 381.36 695.229 382.139 696.509C382.919 697.709 383.983 698.669 385.331 699.389C386.681 700.029 388.075 700.348 389.515 700.348C390.555 700.348 391.597 700.228 392.641 699.989C393.685 699.749 394.612 699.349 395.421 698.789C396.312 698.149 397.005 697.349 397.501 696.389C397.996 695.429 398.253 694.429 398.27 693.389L413.15 693.389C413.038 695.309 412.647 697.189 411.977 699.029C411.387 700.868 410.518 702.588 409.372 704.188C408.307 705.708 407.004 707.068 405.465 708.267C403.926 709.387 402.271 710.307 400.499 711.027C398.727 711.747 396.879 712.227 394.955 712.467C393.11 712.787 391.227 712.947 389.307 712.947ZM398.831 673.952L398.857 672.392C398.881 670.952 398.784 669.513 398.568 668.073C398.352 666.633 397.854 665.313 397.074 664.113C396.375 662.834 395.351 661.834 394.003 661.114C392.735 660.394 391.381 660.034 389.941 660.034C388.501 660.034 387.095 660.394 385.723 661.114C384.431 661.834 383.375 662.834 382.554 664.113C381.814 665.313 381.312 666.633 381.048 668.073C380.784 669.513 380.641 670.952 380.617 672.392L380.591 673.952L398.831 673.952ZM432.283 711.987L433.333 648.396L448.213 648.396L447.991 661.834C448.5 660.074 449.129 658.354 449.876 656.674C450.704 654.995 451.69 653.435 452.834 651.995C454.057 650.555 455.516 649.435 457.209 648.636C458.902 647.836 460.669 647.436 462.509 647.436C464.029 647.436 465.504 647.716 466.935 648.276C468.447 648.756 469.714 649.555 470.735 650.675C471.838 651.715 472.698 652.955 473.314 654.395C474.01 655.835 474.506 657.314 474.801 658.834C475.097 660.274 475.312 661.754 475.447 663.274C475.582 664.793 475.637 666.313 475.612 667.833L460.732 667.833C460.745 667.033 460.679 666.193 460.534 665.313C460.468 664.433 460.242 663.593 459.855 662.794C459.549 661.994 458.999 661.354 458.207 660.874C457.496 660.314 456.701 660.034 455.821 660.034C454.621 660.034 453.534 660.474 452.559 661.354C451.666 662.154 450.93 663.114 450.352 664.233C449.774 665.273 449.316 666.393 448.976 667.593C448.718 668.713 448.498 669.873 448.319 671.072C448.139 672.272 447.999 673.472 447.899 674.672C447.799 675.872 447.74 677.072 447.72 678.271L447.163 711.987L432.283 711.987Z" fill="#7A598F"/>
<path d="M204.643 557.987L205.891 482.397L192.331 482.397L192.539 469.799L220.979 469.799L219.731 545.389L233.291 545.389L233.083 557.987L204.643 557.987ZM264.027 558.947C262.507 558.947 260.99 558.787 259.475 558.467C257.96 558.147 256.53 557.587 255.183 556.787C253.917 555.907 252.815 554.827 251.876 553.547C251.018 552.268 250.28 550.908 249.664 549.468C249.128 548.028 248.752 546.548 248.537 545.029C248.402 543.509 248.347 541.989 248.372 540.469C248.408 538.31 248.684 536.15 249.199 533.99C249.715 531.83 250.587 529.911 251.814 528.231C253.123 526.471 254.668 524.991 256.448 523.792C258.309 522.512 260.245 521.512 262.257 520.792C264.349 520.072 266.437 519.592 268.521 519.352C270.686 519.032 272.849 518.872 275.009 518.872L280.889 518.872L280.954 514.913C280.973 513.793 280.831 512.673 280.53 511.553C280.31 510.353 279.806 509.354 279.019 508.554C278.234 507.674 277.284 507.034 276.171 506.634C275.058 506.234 273.901 506.034 272.701 506.034C271.661 506.034 270.618 506.194 269.573 506.514C268.609 506.754 267.721 507.234 266.909 507.954C266.099 508.594 265.485 509.394 265.07 510.353C264.654 511.313 264.437 512.313 264.42 513.353L249.54 513.353C249.57 511.513 249.841 509.673 250.351 507.834C250.943 505.914 251.772 504.154 252.838 502.554C253.905 500.955 255.168 499.555 256.628 498.355C258.169 497.075 259.825 496.075 261.597 495.355C263.449 494.636 265.297 494.156 267.141 493.916C269.066 493.596 270.989 493.436 272.909 493.436C274.909 493.436 276.906 493.596 278.901 493.916C280.896 494.236 282.806 494.796 284.633 495.595C286.46 496.395 288.122 497.475 289.62 498.835C291.199 500.115 292.454 501.635 293.384 503.394C294.317 505.074 294.966 506.914 295.333 508.914C295.7 510.913 295.867 512.913 295.834 514.913L295.123 557.987L280.243 557.987L280.392 548.988C279.647 550.508 278.703 551.948 277.56 553.308C276.499 554.587 275.241 555.667 273.787 556.547C272.334 557.347 270.764 557.947 269.077 558.347C267.391 558.747 265.707 558.947 264.027 558.947ZM270.355 546.348C271.715 546.348 273.039 546.149 274.325 545.749C275.692 545.349 276.863 544.669 277.839 543.709C278.815 542.749 279.513 541.629 279.934 540.349C280.355 539.069 280.577 537.75 280.6 536.39L280.681 531.471L274.801 531.471C273.921 531.471 273.04 531.511 272.159 531.59C271.358 531.67 270.515 531.83 269.631 532.07C268.828 532.23 268.024 532.51 267.217 532.91C266.412 533.23 265.684 533.71 265.033 534.35C264.464 534.91 264.012 535.63 263.678 536.51C263.345 537.31 263.171 538.15 263.156 539.029C263.14 539.989 263.284 540.949 263.589 541.909C263.893 542.869 264.359 543.709 264.987 544.429C265.695 545.149 266.527 545.669 267.481 545.989C268.437 546.228 269.395 546.348 270.355 546.348ZM308.997 582.584L309.205 569.985L316.165 569.985C316.965 569.985 317.726 569.905 318.449 569.745C319.172 569.585 319.818 569.225 320.387 568.665C320.955 568.185 321.365 567.586 321.617 566.866C321.868 566.146 322.081 565.386 322.254 564.586C322.681 562.986 323.108 561.346 323.535 559.667C323.963 557.987 324.351 556.307 324.699 554.627L311.413 494.396L326.653 494.396L332.873 531.95L339.613 494.396L354.853 494.396L336.727 567.466C336.296 569.305 335.707 571.105 334.957 572.865C334.288 574.625 333.343 576.184 332.12 577.544C331.063 578.584 329.889 579.464 328.597 580.184C327.385 580.904 326.056 581.424 324.611 581.744C323.244 582.144 321.8 582.384 320.279 582.464C318.838 582.544 317.397 582.584 315.957 582.584L308.997 582.584ZM392.307 558.947C390.147 558.947 387.951 558.747 385.717 558.347C383.564 557.947 381.496 557.227 379.513 556.187C377.61 555.147 375.912 553.827 374.418 552.228C372.925 550.628 371.714 548.828 370.787 546.828C369.86 544.829 369.215 542.749 368.85 540.589C368.566 538.43 368.442 536.23 368.479 533.99L368.737 518.392C368.773 516.233 368.968 514.073 369.324 511.913C369.761 509.673 370.435 507.594 371.347 505.674C372.34 503.674 373.61 501.875 375.156 500.275C376.704 498.595 378.446 497.235 380.383 496.195C382.321 495.155 384.372 494.436 386.539 494.036C388.786 493.636 390.989 493.436 393.149 493.436C395.309 493.436 397.466 493.636 399.619 494.036C401.852 494.436 403.921 495.155 405.823 496.195C407.726 497.235 409.424 498.595 410.916 500.275C412.41 501.875 413.58 503.674 414.427 505.674C415.355 507.594 415.961 509.673 416.244 511.913C416.608 514.073 416.773 516.233 416.737 518.392L416.505 532.43L383.385 532.43L383.359 533.99C383.336 535.43 383.431 536.91 383.646 538.43C383.862 539.869 384.36 541.229 385.139 542.509C385.919 543.709 386.983 544.669 388.331 545.389C389.681 546.029 391.075 546.348 392.515 546.348C393.555 546.348 394.597 546.228 395.641 545.989C396.685 545.749 397.612 545.349 398.421 544.789C399.312 544.149 400.005 543.349 400.501 542.389C400.996 541.429 401.253 540.429 401.27 539.389L416.15 539.389C416.038 541.309 415.647 543.189 414.977 545.029C414.387 546.868 413.518 548.588 412.372 550.188C411.307 551.708 410.004 553.068 408.465 554.267C406.926 555.387 405.271 556.307 403.499 557.027C401.727 557.747 399.879 558.227 397.955 558.467C396.11 558.787 394.227 558.947 392.307 558.947ZM401.831 519.952L401.857 518.392C401.881 516.952 401.784 515.513 401.568 514.073C401.352 512.633 400.854 511.313 400.074 510.113C399.375 508.834 398.351 507.834 397.003 507.114C395.735 506.394 394.381 506.034 392.941 506.034C391.501 506.034 390.095 506.394 388.723 507.114C387.431 507.834 386.375 508.834 385.554 510.113C384.814 511.313 384.312 512.633 384.048 514.073C383.784 515.513 383.641 516.952 383.617 518.392L383.591 519.952L401.831 519.952ZM435.283 557.987L436.333 494.396L451.213 494.396L450.991 507.834C451.5 506.074 452.129 504.354 452.876 502.674C453.704 500.995 454.69 499.435 455.834 497.995C457.057 496.555 458.516 495.435 460.209 494.636C461.902 493.836 463.669 493.436 465.509 493.436C467.029 493.436 468.504 493.716 469.935 494.276C471.447 494.756 472.714 495.555 473.735 496.675C474.838 497.715 475.698 498.955 476.314 500.395C477.01 501.835 477.506 503.314 477.801 504.834C478.097 506.274 478.312 507.754 478.447 509.274C478.582 510.793 478.637 512.313 478.612 513.833L463.732 513.833C463.745 513.033 463.679 512.193 463.534 511.313C463.468 510.433 463.242 509.593 462.855 508.794C462.549 507.994 461.999 507.354 461.207 506.874C460.496 506.314 459.701 506.034 458.821 506.034C457.621 506.034 456.534 506.474 455.559 507.354C454.666 508.154 453.93 509.114 453.352 510.233C452.774 511.273 452.316 512.393 451.976 513.593C451.718 514.713 451.498 515.873 451.319 517.072C451.139 518.272 450.999 519.472 450.899 520.672C450.799 521.872 450.74 523.072 450.72 524.271L450.163 557.987L435.283 557.987Z" fill="#3D4372"/>
<path opacity="0.1" d="M649.554 855H1237L1093.33 1055H497L649.554 855Z" fill="#C58C74"/>
<path opacity="0.4" d="M649.554 719H1237L1093.33 919H497L649.554 719Z" fill="#B57272"/>
<path opacity="0.7" d="M665.554 579H1253L1109.33 779H513L665.554 579Z" fill="#7A598F"/>
<path d="M689.054 439H1276.5L1132.83 639H536.5L689.054 439Z" fill="#3D4372"/>
<defs>
<linearGradient id="paint0_linear_9_70" x1="726.5" y1="20" x2="726.5" y2="1473" gradientUnits="userSpaceOnUse">
<stop stop-color="#3D4372"/>
<stop offset="0.340884" stop-color="#7A598F" stop-opacity="0.7"/>
<stop offset="0.675416" stop-color="#B57272" stop-opacity="0.4"/>
<stop offset="1" stop-color="#C58C74" stop-opacity="0.1"/>
</linearGradient>
</defs>
</svg>
